<svg width="683" height="147" viewBox="0 0 683 147" fill="none" xmlns="http://www.w3.org/2000/svg">
<path d="M0 0.5L70.5 71.5L683 113.5V147H0V0.5Z" fill="#4B5162"/>
<path d="M78.978 115.522V123H73.665V100.961H82.4595C84.1447 100.961 85.6331 101.274 86.9248 101.899C88.2266 102.515 89.2306 103.398 89.937 104.548C90.6535 105.689 91.0117 106.985 91.0117 108.438C91.0117 110.588 90.2397 112.308 88.6958 113.6C87.1619 114.882 85.0529 115.522 82.3687 115.522H78.978ZM78.978 111.42H82.4595C83.4888 111.42 84.2708 111.163 84.8057 110.648C85.3506 110.134 85.623 109.407 85.623 108.469C85.623 107.439 85.3455 106.617 84.7905 106.001C84.2355 105.386 83.4787 105.073 82.52 105.063H78.978V111.42ZM99.0039 123H93.8877V99.75H99.0039V123ZM111.386 123C111.204 122.667 111.043 122.178 110.901 121.532C109.963 122.712 108.651 123.303 106.966 123.303C105.422 123.303 104.11 122.839 103.03 121.91C101.951 120.972 101.411 119.796 101.411 118.383C101.411 116.607 102.067 115.265 103.378 114.357C104.69 113.449 106.597 112.995 109.1 112.995H110.674V112.132C110.674 110.628 110.023 109.876 108.722 109.876C107.511 109.876 106.905 110.472 106.905 111.663H101.804C101.804 110.078 102.475 108.792 103.817 107.803C105.17 106.814 106.89 106.319 108.979 106.319C111.068 106.319 112.718 106.829 113.929 107.848C115.14 108.867 115.76 110.265 115.791 112.041V119.292C115.811 120.795 116.043 121.945 116.487 122.743V123H111.386ZM108.192 119.67C108.828 119.67 109.352 119.534 109.766 119.261C110.19 118.989 110.493 118.681 110.674 118.338V115.719H109.191C107.415 115.719 106.527 116.516 106.527 118.111C106.527 118.575 106.683 118.953 106.996 119.246C107.309 119.529 107.708 119.67 108.192 119.67ZM124.933 115.855L127.658 106.622H133.122L126.447 125.74L126.159 126.436C125.211 128.555 123.535 129.615 121.134 129.615C120.468 129.615 119.766 129.514 119.03 129.312V125.664H119.696C120.412 125.664 120.957 125.558 121.331 125.346C121.714 125.144 121.997 124.776 122.178 124.241L122.587 123.151L116.896 106.622H122.345L124.933 115.855ZM142.174 123.303C139.661 123.303 137.628 122.556 136.074 121.062C134.52 119.559 133.743 117.606 133.743 115.205V114.781C133.743 113.106 134.05 111.627 134.666 110.346C135.292 109.064 136.2 108.075 137.391 107.379C138.581 106.673 139.994 106.319 141.629 106.319C143.93 106.319 145.746 107.036 147.078 108.469C148.41 109.892 149.076 111.88 149.076 114.433V116.416H138.935C139.116 117.334 139.515 118.055 140.13 118.58C140.746 119.105 141.543 119.367 142.522 119.367C144.137 119.367 145.398 118.802 146.306 117.672L148.637 120.427C148.001 121.305 147.098 122.006 145.928 122.531C144.767 123.045 143.516 123.303 142.174 123.303ZM141.599 110.255C140.105 110.255 139.217 111.244 138.935 113.222H144.081V112.828C144.101 112.011 143.894 111.38 143.46 110.936C143.027 110.482 142.406 110.255 141.599 110.255ZM161.049 111.239L159.369 111.118C157.765 111.118 156.735 111.622 156.281 112.631V123H151.18V106.622H155.963L156.13 108.726C156.988 107.122 158.183 106.319 159.717 106.319C160.262 106.319 160.736 106.38 161.14 106.501L161.049 111.239ZM181.832 123H176.716V106.713L171.69 108.181V104.306L181.363 100.961H181.832V123Z" fill="white"/>
</svg>
