<svg width="683" height="147" viewBox="0 0 683 147" fill="none" xmlns="http://www.w3.org/2000/svg">
<path d="M683 0L612.5 71.2423L0 113.386V147H683V0Z" fill="#4B5162"/>
<path d="M475.978 115.522V123H470.665V100.961H479.459C481.145 100.961 482.633 101.274 483.925 101.899C485.227 102.515 486.231 103.398 486.937 104.548C487.653 105.689 488.012 106.985 488.012 108.438C488.012 110.588 487.24 112.308 485.696 113.6C484.162 114.882 482.053 115.522 479.369 115.522H475.978ZM475.978 111.42H479.459C480.489 111.42 481.271 111.163 481.806 110.648C482.351 110.134 482.623 109.407 482.623 108.469C482.623 107.439 482.346 106.617 481.791 106.001C481.236 105.386 480.479 105.073 479.52 105.063H475.978V111.42ZM496.004 123H490.888V99.75H496.004V123ZM508.386 123C508.204 122.667 508.043 122.178 507.901 121.532C506.963 122.712 505.651 123.303 503.966 123.303C502.422 123.303 501.11 122.839 500.03 121.91C498.951 120.972 498.411 119.796 498.411 118.383C498.411 116.607 499.067 115.265 500.378 114.357C501.69 113.449 503.597 112.995 506.1 112.995H507.674V112.132C507.674 110.628 507.023 109.876 505.722 109.876C504.511 109.876 503.905 110.472 503.905 111.663H498.804C498.804 110.078 499.475 108.792 500.817 107.803C502.17 106.814 503.89 106.319 505.979 106.319C508.068 106.319 509.718 106.829 510.929 107.848C512.14 108.867 512.76 110.265 512.791 112.041V119.292C512.811 120.795 513.043 121.945 513.487 122.743V123H508.386ZM505.192 119.67C505.828 119.67 506.352 119.534 506.766 119.261C507.19 118.989 507.493 118.681 507.674 118.338V115.719H506.191C504.415 115.719 503.527 116.516 503.527 118.111C503.527 118.575 503.683 118.953 503.996 119.246C504.309 119.529 504.708 119.67 505.192 119.67ZM521.933 115.855L524.658 106.622H530.122L523.447 125.74L523.159 126.436C522.211 128.555 520.535 129.615 518.134 129.615C517.468 129.615 516.766 129.514 516.03 129.312V125.664H516.696C517.412 125.664 517.957 125.558 518.331 125.346C518.714 125.144 518.997 124.776 519.178 124.241L519.587 123.151L513.896 106.622H519.345L521.933 115.855ZM539.174 123.303C536.661 123.303 534.628 122.556 533.074 121.062C531.52 119.559 530.743 117.606 530.743 115.205V114.781C530.743 113.106 531.05 111.627 531.666 110.346C532.292 109.064 533.2 108.075 534.391 107.379C535.581 106.673 536.994 106.319 538.629 106.319C540.93 106.319 542.746 107.036 544.078 108.469C545.41 109.892 546.076 111.88 546.076 114.433V116.416H535.935C536.116 117.334 536.515 118.055 537.13 118.58C537.746 119.105 538.543 119.367 539.522 119.367C541.137 119.367 542.398 118.802 543.306 117.672L545.637 120.427C545.001 121.305 544.098 122.006 542.928 122.531C541.767 123.045 540.516 123.303 539.174 123.303ZM538.599 110.255C537.105 110.255 536.217 111.244 535.935 113.222H541.081V112.828C541.101 112.011 540.894 111.38 540.46 110.936C540.027 110.482 539.406 110.255 538.599 110.255ZM558.049 111.239L556.369 111.118C554.765 111.118 553.735 111.622 553.281 112.631V123H548.18V106.622H552.963L553.13 108.726C553.988 107.122 555.183 106.319 556.717 106.319C557.262 106.319 557.736 106.38 558.14 106.501L558.049 111.239ZM582.904 123H567.525V119.67L574.609 112.223C576.355 110.235 577.228 108.655 577.228 107.485C577.228 106.536 577.021 105.815 576.607 105.32C576.193 104.826 575.593 104.579 574.806 104.579C574.029 104.579 573.398 104.912 572.914 105.578C572.429 106.234 572.187 107.056 572.187 108.045H567.071C567.071 106.693 567.409 105.446 568.085 104.306C568.761 103.156 569.7 102.258 570.9 101.612C572.101 100.966 573.443 100.643 574.927 100.643C577.308 100.643 579.14 101.193 580.421 102.293C581.713 103.393 582.359 104.972 582.359 107.031C582.359 107.899 582.197 108.746 581.875 109.574C581.552 110.391 581.047 111.254 580.361 112.162C579.685 113.06 578.59 114.266 577.076 115.78L574.23 119.064H582.904V123Z" fill="white"/>
</svg>
